<svg viewBox="60 -20 340 340" preserveAspectRatio="xMidYMid meet" xmlns="http://www.w3.org/2000/svg">
  <g transform="translate(0, 281) scale(0.1, -0.1)" fill="#ba9eff">
    <path d="M663 2403c3-10 8-31 12-48 12-53 65-124 122-162 87-58 124-63 424-63 240 0 274-2 333-20 103-32 193-110 243-210 26-50 28-65 28-165 0-99-3-115-27-165-46-92-134-175-219-205-52-18-98-23-275-30-158-6-238-23-328-70-86-45-139-88-184-150-20-27-39-52-42-55-18-16-71-166-80-225-5-38-10-177-10-307v-238h150h149l-1 198c-1 211 11 321 44 385 30 60 87 116 152 150 56 29 69 31 156 31 86 0 102-4 165-33 129-61 168-91 378-285 54-50 117-108 140-129 197-182 443-309 650-337 296-39 575 36 781 210 102 86 257 262 243 276-5 6-6 4-59-61-18-23-52-58-75-78-48-43-201-137-223-137-9 0-24-6-35-14-40-27-176-50-300-50-169 0-254 21-410 101-63 33-162 97-175 112-3 4-18 17-35 30-31 23-170 150-259 234-81 78-207 190-254 226l-44 34 30 13c42 17 152 128 197 198 66 103 97 204 102 336 8 182-31 313-134 451-77 101-170 169-323 233-72 29-179 36-595 36-392 0-416-1-412-17z" />
    <path d="M1230 956c-83-23-122-62-161-158-25-61-42-287-20-274 6 4 11 17 11 30 0 46 33 117 76 165 58 65 111 85 201 79 100-7 176-49 394-214 170-128 319-213 472-268 103-37 175-55 143-35-10 6-44 22-75 34-69 27-182 100-276 178-57 48-236 210-279 253-6 6-48 40-94 77-90 73-185 122-264 137-61 12-70 12-128-4z" />
    <path d="M2655 2453c-152-21-356-112-480-213-88-72-91-76-72-98 36-41 96-196 110-282l3-25 12 27c23 55 108 174 167 233 131 132 293 209 499 236 117 15 302-7 396-48 102-44 183-90 226-129 54-49 59-52 44-25-23 43-266 231-299 231-3 0-23 9-44 20-21 11-90 34-153 50-102 27-131 30-247 29-73-1-145-4-162-6z" />
    <path d="M3618 1479c-170-8-348-44-478-96-183-72-382-204-502-331-120-128-181-213-99-139 22 19 50 41 63 48 12 6 26 16 29 21 9 14 279 148 298 148 9 0 21 4 26 9 23 21 268 71 391 80 71 5 132 7 135 5 21-13-51-218-107-304-128-199-310-306-540-317-100-5-120-3-205 21-51 15-115 41-142 57-66 40-55 14 14-33 277-192 582-216 854-67 33 18 65 37 70 41 123 97 184 159 215 218 7 14 16 27 20 30 14 11 61 109 90 189 34 96 50 204 50 338 0 69-3 93-12 91-7 0-84-5-170-9z" />
  </g>
</svg>
